 <svg
                  xmlns="http://www.w3.org/2000/svg"
                  viewBox="0 0 48 48"
                  className=""
                  style={{
                    maxWidth: "15px;",
                    minWidth: "15px;",
                    height: "15px;",
                  }}
                >
                  <clipPath id="88ad06a86fd18f083bdc5e25e69c09da__a">
                    <path d="M44.5 20H24v8.5h11.8C34.7 33.9 30.1 37 24 37c-7.2 0-13-5.8-13-13s5.8-13 13-13c3.1 0 5.9 1.1 8.1 2.9l6.4-6.4A21.94 21.94 0 0 0 2 24c0 12.2 9.8 22 22 22 11 0 21-8 21-22 0-1.3-.2-2.7-.5-4z"></path>
                  </clipPath>
                  <path
                    clip-path="url(#88ad06a86fd18f083bdc5e25e69c09da__a)"
                    fill="#FBBC05"
                    d="M0 37V11l17 13z"
                  ></path>
                  <path
                    clip-path="url(#88ad06a86fd18f083bdc5e25e69c09da__a)"
                    fill="#EA4335"
                    d="m0 11 17 13 7-6.1L48 14V0H0z"
                  ></path>
                  <path
                    clip-path="url(#88ad06a86fd18f083bdc5e25e69c09da__a)"
                    fill="#34A853"
                    d="m0 37 30-23 7.9 1L48 0v48H0z"
                  ></path>
                  <path
                    clip-path="url(#88ad06a86fd18f083bdc5e25e69c09da__a)"
                    fill="#4285F4"
                    d="M48 48 17 24l-4-3 35-10z"
                  ></path>
                </svg>